<?xml version="1.0" encoding="utf-8"?>
<!-- Generator: Adobe Illustrator 21.0.0, SVG Export Plug-In . SVG Version: 6.00 Build 0)  -->
<svg version="1.1" id="Camada_1" xmlns:v="https://vecta.io/nano"
	 xmlns="http://www.w3.org/2000/svg" xmlns:xlink="http://www.w3.org/1999/xlink" x="0px" y="0px" viewBox="0 0 64 64"
	 style="enable-background:new 0 0 64 64;" xml:space="preserve">
<style type="text/css">
	.st0{fill:#FFFFFF;}
	.st1{fill:#48BAC1;}
	.st2{fill:#0F6073;}
	.st3{fill:#D9852F;}
	.st4{fill:#F2A727;}
	.st5{fill:#EDD04C;}
	.st6{filter:url(#Adobe_OpacityMaskFilter);}
	.st7{mask:url(#mask-6_6_);fill:#0F6073;}
	.st8{filter:url(#Adobe_OpacityMaskFilter_1_);}
	.st9{mask:url(#mask-6_5_);fill:#0F6073;}
	.st10{filter:url(#Adobe_OpacityMaskFilter_2_);}
	.st11{mask:url(#mask-6_4_);fill:#0F6073;}
</style>
<path class="st0" d="M61,22.9c0.6,0.6,0.7,1.7,0.2,2.4c-9.5,13.6-21.3,25.5-34.8,35.1l-1.1,0.8c-0.8,0.6-1.9,0.5-2.5-0.2L18,56.2
	c2.9-3,2.8-7.7-0.2-10.6c-2.9-2.8-7.5-2.8-10.5,0l-4.4-4.4c-0.8-0.8-0.7-2.2,0.2-2.9l1.1-0.8c13.2-9.4,24.7-21,34-34.3
	c0.6-0.8,1.7-1,2.5-0.4C40.9,2.8,41,2.9,41,2.9l4.5,4.5c-2.9,3-2.8,7.7,0.2,10.6c2.9,2.8,7.5,2.8,10.4,0L61,22.9L61,22.9z"/>
<path class="st1" d="M63.2,24.3L46,46L23.7,62.9l-4.3-4.3l-1.5-1.9l1.5-2.2l0.5-2.2l-0.3-2.4l-0.9-2.2l-1.5-1.8l-1.8-1.2L13.6,44
	h-2.4l-2.5,0.9l-1.5,1.3l-3.6-4.3l5.8-0.9c18-2.7,35.1-10,49.5-21.1L63.2,24.3L63.2,24.3z"/>
<g>
	<path class="st2" d="M15.8,56.4c0-0.6,0.3-1.2,0.7-1.7l0,0c2-2,1.9-5.3-0.2-7.3c-2-1.9-5.1-1.9-7.1,0l0,0c-0.9,0.9-2.4,0.9-3.4,0
		c0,0,0,0,0,0l-4.6-4.6c-1.7-1.7-1.7-4.4,0-6.1c0.2-0.2,0.3-0.3,0.5-0.5l1.1-0.8l1.4,1.9l-1.1,0.8c-1,0.7-1.1,2.1-0.2,2.9l4.6,4.6
		l0,0c2.9-2.9,7.7-2.9,10.6,0c2.9,2.9,2.9,7.7,0,10.6l0,0l4.6,4.6c0.7,0.7,1.8,0.8,2.5,0.2l1.1-0.8c13.5-9.6,25.3-21.5,34.8-35.1
		c0.5-0.7,0.4-1.8-0.2-2.4l-4.8-4.8l-0.1,0.1c-3,2.9-7.7,2.9-10.6-0.1c-2.9-2.9-2.9-7.6,0-10.5l0.1-0.1L41,2.9
		c-0.7-0.7-1.9-0.7-2.6,0c-0.1,0.1-0.1,0.2-0.2,0.2C29,16.5,17.5,28.1,4.3,37.5l-1.4-1.9c13-9.3,24.3-20.7,33.4-33.7
		c1.3-1.9,4-2.4,5.9-1c0.2,0.1,0.4,0.3,0.6,0.5l4.5,4.5c0.9,0.9,0.9,2.4,0,3.4c0,0,0,0,0,0l0,0c-2,2-1.9,5.3,0.2,7.3
		c2,1.9,5.1,1.9,7.1,0l0,0c0.9-0.9,2.4-1,3.4,0c0,0,0,0,0,0l4.8,4.8c1.5,1.5,1.7,3.8,0.5,5.4c-9.7,13.8-21.7,25.9-35.4,35.7
		l-1.1,0.8c-1.7,1.2-4.1,1-5.6-0.5l-4.6-4.6C16.1,57.7,15.8,57,15.8,56.4L15.8,56.4z"/>
	<g>
		<path id="A" class="st2" d="M32,11.3l1.1,1.1c0.5,0.5,0.5,1.2,0,1.7s-1.2,0.5-1.7,0l-1.1-1.1c-0.5-0.5-0.5-1.2,0-1.7
			S31.5,10.8,32,11.3z"/>
	</g>
	<g>
		<path id="A_1_" class="st2" d="M36.4,15.7l1.1,1.1c0.5,0.5,0.5,1.2,0,1.7c-0.5,0.5-1.2,0.5-1.7,0l-1.1-1.1c-0.5-0.5-0.5-1.2,0-1.7
			C35.2,15.2,35.9,15.2,36.4,15.7z"/>
	</g>
	<g>
		<path id="B" class="st2" d="M41.9,22.8c-0.5,0.5-1.2,0.5-1.7,0c0,0,0,0,0,0l-1.3-1.3c-0.5-0.5-0.5-1.2,0-1.7
			c0.5-0.5,1.2-0.5,1.7,0l1.3,1.3C42.3,21.6,42.3,22.4,41.9,22.8C41.9,22.8,41.9,22.8,41.9,22.8z"/>
	</g>
	<g>
		<path id="B_1_" class="st2" d="M46.3,27.2c-0.5,0.5-1.2,0.5-1.7,0c0,0,0,0,0,0L43.4,26c-0.5-0.5-0.5-1.2,0-1.7
			c0.5-0.5,1.2-0.5,1.7,0l1.3,1.3C46.8,26,46.8,26.8,46.3,27.2C46.3,27.2,46.3,27.2,46.3,27.2z"/>
	</g>
	<path class="st2" d="M49.5,28.7l1.1,1.1c0.5,0.5,0.5,1.2,0,1.7c-0.5,0.5-1.2,0.5-1.7,0l-1.1-1.1c-0.5-0.5-0.5-1.2,0-1.7
		C48.2,28.3,49,28.3,49.5,28.7L49.5,28.7z"/>
	<g>
		<path id="A_2_" class="st2" d="M53.9,33.1l1.1,1.1c0.5,0.5,0.5,1.2,0,1.7c-0.5,0.5-1.2,0.5-1.7,0l-1.1-1.1c-0.5-0.5-0.5-1.2,0-1.7
			C52.7,32.7,53.4,32.7,53.9,33.1z"/>
	</g>
</g>
<g>
	<path class="st2" d="M21.7,27.5c-4.8,4.8-4.8,12.6,0,17.4c4.8,4.8,12.6,4.8,17.4,0c4.8-4.8,4.8-12.6,0-17.4
		C34.2,22.7,26.5,22.7,21.7,27.5z M39.7,32.2c-0.1,0.1-3.6,3.4-7,8c0,0-3.4,1.9-6.5,5.2c-1.5-0.5-2.8-1.3-4-2.5
		c-4.1-4.1-4.1-10.8,0-14.9s10.8-4.1,14.9,0C38.4,29.2,39.2,30.6,39.7,32.2L39.7,32.2z"/>
	<path class="st1" d="M21.9,27.7c-4.5,4.5-4.5,11.8,0,16.3s11.8,4.5,16.3,0c4.5-4.5,4.5-11.8,0-16.3S26.4,23.2,21.9,27.7z
		 M39.7,32.2c-0.1,0.1-3.6,3.4-7,8c0,0-3.4,1.9-6.5,5.2c-1.5-0.5-2.8-1.3-4-2.5c-4.1-4.1-4.1-10.8,0-14.9s10.8-4.1,14.9,0
		C38.4,29.2,39.2,30.6,39.7,32.2L39.7,32.2z"/>
	<path class="st2" d="M22,27.8c-4.4,4.4-4.4,11.6,0,16c4.4,4.4,11.6,4.4,16,0c4.4-4.4,4.4-11.6,0-16C33.6,23.4,26.4,23.4,22,27.8z
		 M39.7,32.2c-0.1,0.1-3.6,3.4-7,8c0,0-3.4,1.9-6.5,5.2c-1.5-0.5-2.8-1.3-4-2.5c-4.1-4.1-4.1-10.8,0-14.9c4.1-4.1,10.8-4.1,14.9,0
		C38.4,29.2,39.2,30.6,39.7,32.2L39.7,32.2z"/>
	<path class="st0" d="M37.2,28c1.2,1.2,2.1,2.6,2.6,4.2l0,0c-0.1,0.1-3.6,3.4-7,8c0,0-3.4,1.9-6.5,5.2c-1.5-0.5-2.8-1.3-4-2.5
		c-4.1-4.1-4.1-10.8,0-14.9C26.4,23.9,33,23.9,37.2,28z"/>
	<path class="st1" d="M32.4,40.9c-3.2,2.6-4.9,4.4-5.2,4.8c-0.2-0.1-0.4-0.1-0.7-0.2C29.2,42.8,32.2,41,32.4,40.9z"/>
	<path class="st1" d="M31.8,42c-1.9,2-3,3.6-3.3,4c-0.2,0-0.3,0-0.5-0.1C30.4,43.1,31.8,42,31.8,42z"/>
	<path class="st1" d="M30.6,44.1c-0.6,0.9-1,1.6-1.2,1.9c-0.1,0-0.2,0-0.3,0C29.5,45.4,30.6,44.1,30.6,44.1z"/>
	<path class="st1" d="M39.9,32.9c-5.9,6.7-8,11.7-8.6,13c-0.3,0.1-0.7,0.1-1,0.1C33.8,38.3,39.9,32.9,39.9,32.9z"/>
	<path class="st1" d="M40.1,33.9C40.1,33.9,40.1,33.9,40.1,33.9c-4,5.3-6.1,10.2-6.6,11.4l0,0c-0.3,0.1-0.7,0.2-1,0.3
		C35.8,38,39.7,34.3,40.1,33.9z"/>
	<path class="st1" d="M40.2,33.9C40.2,33.9,40.2,33.9,40.2,33.9C40.1,33.9,40.1,33.9,40.2,33.9C40.2,33.9,40.2,33.9,40.2,33.9z"/>
	<path class="st1" d="M40.2,35.2c-3.1,5.3-4.1,8.6-4.1,8.6c-0.3,0.2-0.7,0.5-1,0.7C37.3,38.5,40.2,35.3,40.2,35.2z"/>
	<path class="st1" d="M40.1,37.3c-0.7,1.4-1.5,3.7-1.5,3.8c-0.3,0.5-0.7,1-1.1,1.4C38.8,38.7,40.1,37.3,40.1,37.3z"/>
	<path class="st2" d="M33.1,34.3c0,0,1,1.8-0.6,3.4l1.3,1.3c-0.1,0.1-0.2,0.2-0.2,0.3l-0.9-0.9c0,0-1.2,1.5-3.3,0.6
		c0,0,1.1-1.4,3-0.9L30.2,36l0.3-0.3l1.8,1.8C32.3,37.5,31.5,35.8,33.1,34.3z"/>
	<path class="st2" d="M28.9,40c0,0,0.6,1.1-0.4,2.1l0.6,0.6c-0.1,0-0.1,0.1-0.2,0.1l-0.3-0.3c0,0-0.8,0.9-2.1,0.4
		c0,0,0.7-0.9,1.9-0.6l-1.3-1.3l0.2-0.2l1.1,1.1C28.4,42,27.9,40.9,28.9,40z"/>
	<path class="st2" d="M37,31.9c0,0,0.6,1.1-0.4,2.1l0.7,0.7c-0.1,0.1-0.1,0.1-0.2,0.2l-0.4-0.4c0,0-0.8,0.9-2.1,0.4
		c0,0,0.7-0.9,1.9-0.6L35.2,33l0.2-0.2l1.1,1.1C36.5,33.9,36,32.8,37,31.9z"/>
	<g>
		<ellipse transform="matrix(0.7071 -0.7071 0.7071 0.7071 -20.2358 29.3185)" class="st3" cx="25.3" cy="39.1" rx="3.2" ry="3.2"/>
		<ellipse transform="matrix(0.7071 -0.7071 0.7071 0.7071 -20.2358 29.3185)" class="st4" cx="25.3" cy="39.1" rx="2.7" ry="2.7"/>
		<ellipse transform="matrix(0.7071 -0.7071 0.7071 0.7071 -20.2358 29.3185)" class="st5" cx="25.3" cy="39.1" rx="2.3" ry="2.3"/>
		<g id="Group_1_" transform="translate(7.000000, 7.000000)">
			<polygon id="Fill-1_1_" class="st2" points="17.5,30.8 17.7,31 18.2,30.5 18.7,31.1 18.9,30.9 18.2,30.2 			"/>
			<polygon id="Fill-2_1_" class="st2" points="17.5,33.2 18,33.7 18.1,33.8 18.2,33.9 18.8,33.2 18.6,33.1 18.2,33.5 17.7,33 			
				"/>
			<g id="Group-5_2_">
				<g id="Clip-4_2_">
				</g>
				<defs>
					<filter id="Adobe_OpacityMaskFilter" filterUnits="userSpaceOnUse" x="16.3" y="31.1" width="1.7" height="1.9">
						<feColorMatrix  type="matrix" values="1 0 0 0 0  0 1 0 0 0  0 0 1 0 0  0 0 0 1 0"/>
					</filter>
				</defs>
				<mask maskUnits="userSpaceOnUse" x="16.3" y="31.1" width="1.7" height="1.9" id="mask-6_6_">
					<g class="st6">
						<polygon id="path-5_6_" class="st0" points="16.3,32 17.4,31 18.4,31.9 17.3,33 						"/>
					</g>
				</mask>
				<path id="Fill-3_2_" class="st7" d="M16.7,32l0.6-0.6c0,0,0.1,0,0.1,0l0.1,0.1c0,0,0,0.1,0,0.1L17,32.2L16.7,32z M17.5,32.8
					l0.3-0.3l-0.2-0.2l-0.3,0.3l-0.2-0.2l0.6-0.6c0,0,0.1,0,0.1,0l0.1,0.1l0.2-0.2l0,0c-0.1-0.1-0.2-0.1-0.3,0l0,0
					c0,0,0.2-0.2,0-0.3c0,0,0,0,0,0c-0.1-0.1-0.2-0.3-0.4-0.2l-0.7,0.7L16.3,32l1,1L17.5,32.8L17.5,32.8z"/>
			</g>
			<path id="Fill-6_1_" class="st2" d="M19.5,32L19.5,32c0.1,0.1,0.1,0.1,0.1,0.2l-0.2,0.2l0,0L19,32.7l-0.2-0.2l0.5-0.5
				C19.3,31.9,19.4,31.9,19.5,32L19.5,32L19.5,32z M18.4,32.1l0.5-0.5c0,0,0.1,0,0.1,0l0.1,0.1c0,0,0,0.1,0,0.1l-0.6,0.6L18.4,32.1z
				 M18.9,31.2l-0.7,0.7L18,32.1l1,1l0.2-0.2l0.3-0.3l0,0c0.1-0.1,0.3-0.3,0.3-0.3c0,0,0.1-0.2,0-0.3l-0.1-0.1l0,0l0,0
				c-0.1-0.1-0.2-0.1-0.3,0l0,0c0,0,0.2-0.2,0-0.3c0,0,0,0,0,0C19.3,31.3,19.1,31,18.9,31.2L18.9,31.2z"/>
		</g>
	</g>
	<g>
		<ellipse transform="matrix(0.7071 -0.7071 0.7071 0.7071 -12.1281 32.6769)" class="st3" cx="33.4" cy="31" rx="3.2" ry="3.2"/>
		<ellipse transform="matrix(0.7071 -0.7071 0.7071 0.7071 -12.1281 32.6769)" class="st4" cx="33.4" cy="31" rx="2.7" ry="2.7"/>
		<ellipse transform="matrix(0.7071 -0.7071 0.7071 0.7071 -12.1281 32.6769)" class="st5" cx="33.4" cy="31" rx="2.3" ry="2.3"/>
		<g id="Group_2_" transform="translate(7.000000, 7.000000)">
			<polygon id="Fill-1_2_" class="st2" points="25.7,22.7 25.8,22.9 26.3,22.4 26.8,23 27,22.8 26.3,22.1 			"/>
			<polygon id="Fill-2_2_" class="st2" points="25.6,25.1 26.1,25.6 26.2,25.7 26.3,25.8 26.9,25.1 26.7,25 26.3,25.4 25.8,24.9 			
				"/>
			<g id="Group-5_3_">
				<g id="Clip-4_3_">
				</g>
				<defs>
					<filter id="Adobe_OpacityMaskFilter_1_" filterUnits="userSpaceOnUse" x="24.5" y="23" width="1.7" height="1.9">
						<feColorMatrix  type="matrix" values="1 0 0 0 0  0 1 0 0 0  0 0 1 0 0  0 0 0 1 0"/>
					</filter>
				</defs>
				<mask maskUnits="userSpaceOnUse" x="24.5" y="23" width="1.7" height="1.9" id="mask-6_5_">
					<g class="st8">
						<polygon id="path-5_5_" class="st0" points="24.5,23.9 25.5,22.9 26.5,23.8 25.4,24.9 						"/>
					</g>
				</mask>
				<path id="Fill-3_3_" class="st9" d="M24.8,23.9l0.6-0.6c0,0,0.1,0,0.1,0l0.1,0.1c0,0,0,0.1,0,0.1l-0.6,0.6L24.8,23.9z
					 M25.6,24.7l0.3-0.3l-0.2-0.2l-0.3,0.3l-0.2-0.2l0.6-0.6c0,0,0.1,0,0.1,0l0.1,0.1l0.2-0.2l0,0c-0.1-0.1-0.2-0.1-0.3,0l0,0
					c0,0,0.2-0.2,0-0.3c0,0,0,0,0,0c-0.1-0.1-0.2-0.3-0.4-0.2l-0.7,0.7l-0.2,0.2l1,1L25.6,24.7L25.6,24.7z"/>
			</g>
			<path id="Fill-6_2_" class="st2" d="M27.6,23.9L27.6,23.9c0.1,0.1,0.1,0.1,0.1,0.2l-0.2,0.2l0,0l-0.3,0.3l-0.2-0.2l0.5-0.5
				C27.4,23.8,27.5,23.8,27.6,23.9L27.6,23.9L27.6,23.9z M26.5,24l0.5-0.5c0,0,0.1,0,0.1,0l0.1,0.1c0,0,0,0.1,0,0.1l-0.6,0.6
				L26.5,24z M27,23.1l-0.7,0.7L26.1,24l1,1l0.2-0.2l0.3-0.3l0,0c0.1-0.1,0.3-0.3,0.3-0.3c0,0,0.1-0.2,0-0.3l-0.1-0.1l0,0l0,0
				c-0.1-0.1-0.2-0.1-0.3,0l0,0c0,0,0.2-0.2,0-0.3c0,0,0,0,0,0C27.4,23.2,27.2,22.9,27,23.1L27,23.1z"/>
		</g>
	</g>
	<g>
		<ellipse transform="matrix(0.7071 -0.7071 0.7071 0.7071 -15.0261 28.4127)" class="st3" cx="26.8" cy="32.3" rx="5" ry="5"/>
		<ellipse transform="matrix(0.7071 -0.7071 0.7071 0.7071 -15.0261 28.4127)" class="st4" cx="26.8" cy="32.3" rx="4.2" ry="4.2"/>
		<ellipse transform="matrix(0.7071 -0.7071 0.7071 0.7071 -15.0261 28.4127)" class="st5" cx="26.8" cy="32.3" rx="3.6" ry="3.6"/>
		<g id="Group" transform="translate(7.000000, 7.000000)">
			<polygon id="Fill-1" class="st2" points="18.6,23.3 18.9,23.6 19.6,22.9 20.4,23.7 20.7,23.4 19.6,22.3 			"/>
			<polygon id="Fill-2" class="st2" points="18.5,27.1 19.4,27.9 19.5,28 19.6,28.2 20.6,27.2 20.4,26.9 19.7,27.6 18.8,26.8 			"/>
			<g id="Group-5_1_">
				<g id="Clip-4_1_">
				</g>
				<defs>
					<filter id="Adobe_OpacityMaskFilter_2_" filterUnits="userSpaceOnUse" x="16.7" y="23.7" width="2.8" height="3.1">
						<feColorMatrix  type="matrix" values="1 0 0 0 0  0 1 0 0 0  0 0 1 0 0  0 0 0 1 0"/>
					</filter>
				</defs>
				<mask maskUnits="userSpaceOnUse" x="16.7" y="23.7" width="2.8" height="3.1" id="mask-6_4_">
					<g class="st10">
						<polygon id="path-5_4_" class="st0" points="16.7,25.3 18.4,23.6 20,25.1 18.3,26.8 						"/>
					</g>
				</mask>
				<path id="Fill-3_1_" class="st11" d="M17.4,25.2l0.9-0.9c0.1-0.1,0.2-0.1,0.2,0l0.1,0.1c0.1,0.1,0.1,0.1,0,0.2l-0.9,0.9
					L17.4,25.2z M18.6,26.4l0.6-0.6l-0.3-0.3l-0.6,0.6L18,25.8l0.9-0.9c0,0,0.1,0,0.2,0l0.1,0.1l0.4-0.4l-0.1-0.1
					c-0.1-0.1-0.4-0.1-0.5,0l0,0c0,0,0.3-0.3,0-0.5c0,0,0,0,0,0c-0.1-0.1-0.4-0.5-0.7-0.2l-1.1,1.1l-0.4,0.4l1.5,1.5L18.6,26.4
					L18.6,26.4z"/>
			</g>
			<path id="Fill-6" class="st2" d="M21.7,25.1l0.1,0.1c0,0,0,0.1,0,0.2l-0.4,0.4l0,0l-0.5,0.5l-0.4-0.4l0.9-0.9c0,0,0.1,0,0.2,0
				L21.7,25.1L21.7,25.1z M20,25.3l0.9-0.9c0.1-0.1,0.2-0.1,0.2,0l0.1,0.1c0.1,0.1,0.1,0.1,0,0.2l-0.9,0.9L20,25.3z M20.8,23.9
				l-1.1,1.1l-0.4,0.4l1.5,1.5l0.4-0.4l0.6-0.6l0,0c0.1-0.1,0.5-0.4,0.5-0.6c0,0,0.1-0.3,0-0.5l-0.2-0.2l0,0L22,24.7
				c-0.1-0.1-0.4-0.1-0.5,0l0,0c0,0,0.3-0.3,0-0.5c0,0,0,0,0,0C21.4,24.1,21.1,23.7,20.8,23.9L20.8,23.9z"/>
		</g>
	</g>
</g>
</svg>
