<?xml version="1.0" encoding="utf-8"?>
<!-- Generator: Adobe Illustrator 21.0.0, SVG Export Plug-In . SVG Version: 6.00 Build 0)  -->
<svg version="1.1" id="Camada_1" xmlns:v="https://vecta.io/nano" opacity="0.1"
	 xmlns="http://www.w3.org/2000/svg" xmlns:xlink="http://www.w3.org/1999/xlink" x="0px" y="0px" viewBox="0 0 193 230"
	 style="enable-background:new 0 0 193 230;" xml:space="preserve">
<style type="text/css">
	.st0{fill:#FFFFFF;}
	.st1{fill:#48BAC1;}
	.st2{fill:#0F6073;}
	.st3{fill:#DBCDF9;}
	.st4{fill:#D9852F;}
	.st5{fill:#F2A727;}
	.st6{fill:#EDD04C;}
	.st7{filter:url(#Adobe_OpacityMaskFilter);}
	.st8{mask:url(#mask-6_3_);fill:#0F6073;}
	.st9{filter:url(#Adobe_OpacityMaskFilter_1_);}
	.st10{mask:url(#mask-6_2_);fill:#0F6073;}
	.st11{filter:url(#Adobe_OpacityMaskFilter_2_);}
	.st12{mask:url(#mask-6_1_);fill:#0F6073;}
</style>
<g>
	<path class="st0" d="M219.4,82.4c2.3,2.3,2.6,5.9,0.8,8.6c-34.3,48.9-76.6,91.7-125.3,126.4l-3.8,2.7c-2.8,2-6.7,1.7-9.1-0.8
		l-17.3-17.3c10.4-10.7,10.1-27.8-0.6-38.2c-10.5-10.2-27.1-10.2-37.6,0L10.6,148c-3-3-2.6-8,0.9-10.5l3.8-2.7
		c47.5-33.8,88.8-75.6,122.2-123.3c2.1-3,6.2-3.7,9.2-1.6c0.3,0.2,0.6,0.5,0.9,0.7l16.2,16.2c-10.4,10.7-10,27.8,0.7,38.2
		c10.5,10.1,27,10.1,37.5,0L219.4,82.4L219.4,82.4z"/>
	<path class="st1" d="M227.1,87.2l-61.8,78.3l-80,60.5l-15.4-15.5l-5.5-6.7l5.5-8l1.9-8l-1.1-8.6l-3.2-8l-5.3-6.4l-6.4-4.3l-7-2.1
		h-8.6l-9.1,3.2l-5.3,4.8L13,150.8l20.9-3.1c64.8-9.7,126-35.8,177.8-76L227.1,87.2L227.1,87.2z"/>
	<g>
		<path class="st2" d="M56.9,202.8c0-2.3,0.9-4.5,2.5-6.1l0,0c7-7.4,6.8-19-0.6-26.1c-7.1-6.8-18.3-6.8-25.5,0l0,0
			c-3.3,3.4-8.8,3.4-12.1,0c0,0,0,0,0,0L4.5,154.1c-6-6.1-6-15.9,0-21.9c0.6-0.6,1.2-1.1,1.9-1.6l3.8-2.7l5,7l-3.8,2.7
			C8,140,7.6,145,10.6,148l16.7,16.7l0,0c10.6-10.5,27.7-10.5,38.2,0c10.5,10.5,10.5,27.6,0,38.1l-0.1,0.1L82,219.4
			c2.4,2.4,6.3,2.8,9.1,0.8l3.8-2.7c48.6-34.7,91-77.4,125.3-126.4c1.9-2.7,1.6-6.3-0.8-8.6L202,65l-0.4,0.4
			c-10.6,10.5-27.7,10.4-38.2-0.3c-10.4-10.5-10.4-27.4,0-37.9l0.4-0.4l-16.3-16.3c-2.6-2.6-6.7-2.6-9.3,0c-0.3,0.3-0.5,0.6-0.7,0.9
			c-33.4,47.8-74.8,89.5-122.2,123.3l-5-7C57,94.5,97.6,53.5,130.5,6.5c4.8-6.8,14.2-8.5,21.1-3.7c0.7,0.5,1.4,1.1,2,1.7l16.3,16.3
			c3.3,3.3,3.3,8.8,0,12.1c0,0,0,0-0.1,0.1l-0.1,0.1c-7,7.4-6.8,19,0.6,26.1c7.1,6.8,18.3,6.8,25.5,0l0.1-0.1
			c3.3-3.4,8.7-3.4,12.1-0.1c0,0,0,0,0.1,0.1l17.4,17.4c5.2,5.2,6,13.5,1.7,19.6c-34.8,49.7-77.9,93.2-127.3,128.4l-3.8,2.7
			c-6.2,4.4-14.7,3.7-20.1-1.7l-16.5-16.5C57.8,207.3,56.9,205.1,56.9,202.8L56.9,202.8z"/>
		<g>
			<path id="A" class="st2" d="M115,40.5l3.8,3.8c1.7,1.7,1.7,4.4,0,6.1c-1.7,1.7-4.4,1.7-6.1,0l-3.8-3.8c-1.7-1.7-1.7-4.4,0-6.1
				S113.3,38.8,115,40.5z"/>
		</g>
		<g>
			<path id="A_1_" class="st2" d="M130.9,56.4l3.8,3.8c1.7,1.7,1.7,4.4,0,6.1c-1.7,1.7-4.4,1.7-6.1,0l-3.8-3.8
				c-1.7-1.7-1.7-4.4,0-6.1C126.5,54.7,129.2,54.7,130.9,56.4z"/>
		</g>
		<g>
			<path id="B" class="st2" d="M150.6,82.1c-1.7,1.7-4.4,1.7-6.1,0c0,0,0,0,0,0l-4.5-4.5c-1.7-1.7-1.7-4.4,0-6.1
				c1.7-1.7,4.4-1.7,6.1,0l4.5,4.5C152.3,77.7,152.3,80.4,150.6,82.1C150.6,82.1,150.6,82.1,150.6,82.1z"/>
		</g>
		<g>
			<path id="B_1_" class="st2" d="M166.5,98c-1.7,1.7-4.4,1.7-6.1,0c0,0,0,0,0,0l-4.5-4.5c-1.7-1.7-1.7-4.4,0-6.1
				c1.7-1.7,4.4-1.7,6.1,0l4.5,4.5C168.1,93.6,168.1,96.3,166.5,98C166.5,98,166.5,98,166.5,98z"/>
		</g>
		<path class="st2" d="M177.8,103.3l3.8,3.8c1.7,1.7,1.7,4.4,0,6.1c-1.7,1.7-4.4,1.7-6.1,0l-3.8-3.8c-1.7-1.7-1.7-4.4,0-6.1
			C173.4,101.6,176.1,101.6,177.8,103.3L177.8,103.3z"/>
		<g>
			<path id="A_2_" class="st2" d="M193.7,119.2l3.8,3.8c1.7,1.7,1.7,4.4,0,6.1c-1.7,1.7-4.4,1.7-6.1,0l-3.8-3.8
				c-1.7-1.7-1.7-4.4,0-6.1C189.3,117.5,192,117.5,193.7,119.2z"/>
		</g>
	</g>
	<g>
		
			<ellipse transform="matrix(0.7071 -0.7071 0.7071 0.7071 -71.7602 117.6487)" class="st3" cx="106.1" cy="145.4" rx="5.1" ry="7.5"/>
		
			<ellipse transform="matrix(0.7071 -0.7071 0.7071 0.7071 -52.5625 125.6006)" class="st3" cx="125.3" cy="126.2" rx="5.1" ry="7.5"/>
	</g>
	<g>
		<path class="st2" d="M77.9,98.8c-17.2,17.2-17.2,45.2,0,62.5c17.2,17.2,45.2,17.2,62.5,0s17.2-45.2,0-62.5
			C123.1,81.5,95.1,81.5,77.9,98.8z M142.8,115.7c-0.3,0.3-12.8,12.1-25,28.8c0,0-12.1,7-23.5,18.8c-5.2-1.8-10.1-4.8-14.3-9
			c-14.8-14.8-14.8-38.8,0-53.7s38.8-14.8,53.6,0C138,105,141,110.2,142.8,115.7L142.8,115.7z"/>
		<path class="st1" d="M78.8,99.6c-16.2,16.2-16.2,42.5,0,58.7s42.5,16.2,58.7,0c16.2-16.2,16.2-42.5,0-58.7S95,83.4,78.8,99.6z
			 M142.8,115.7c-0.3,0.3-12.8,12.1-25,28.8c0,0-12.1,7-23.5,18.8c-5.2-1.8-10.1-4.8-14.3-9c-14.8-14.8-14.8-38.8,0-53.7
			s38.8-14.8,53.6,0C138,105,141,110.2,142.8,115.7L142.8,115.7z"/>
		<path class="st2" d="M79.1,99.9c-15.9,15.9-15.9,41.6,0,57.4c15.9,15.9,41.6,15.9,57.4,0c15.9-15.9,15.9-41.6,0-57.4
			C120.6,84,94.9,84,79.1,99.9z M142.8,115.7c-0.3,0.3-12.8,12.1-25,28.8c0,0-12.1,7-23.5,18.8c-5.2-1.8-10.1-4.8-14.3-9
			c-14.8-14.8-14.8-38.8,0-53.7c14.8-14.8,38.8-14.8,53.6,0C138,105,141,110.2,142.8,115.7L142.8,115.7z"/>
		<path class="st0" d="M133.6,100.7c4.4,4.4,7.4,9.5,9.2,15l0,0c-0.3,0.3-12.8,12.1-25,28.8c0,0-12.1,7-23.5,18.8
			c-5.2-1.8-10.1-4.8-14.3-9c-14.8-14.8-14.8-38.8,0-53.7C94.8,85.9,118.8,85.9,133.6,100.7z"/>
		<path class="st1" d="M116.5,147.1c-11.7,9.3-17.4,15.9-18.6,17.3c-0.8-0.2-1.6-0.4-2.4-0.6C105,154,115.8,147.5,116.5,147.1z"/>
		<path class="st1" d="M114.4,150.8c-6.7,7.1-10.9,12.8-12,14.3c-0.6-0.1-1.3-0.2-1.9-0.3C109.2,154.9,114.4,150.8,114.4,150.8z"/>
		<path class="st1" d="M110,158.4c-2.2,3.2-3.7,5.8-4.4,7c-0.3,0-0.6,0-0.9,0C106.1,163.1,110,158.4,110,158.4z"/>
		<path class="st1" d="M143.6,118.2c-21.3,24.2-28.9,41.9-30.7,46.7c-1.2,0.2-2.5,0.3-3.8,0.4C121.4,137.8,143.6,118.2,143.6,118.2z
			"/>
		<path class="st1" d="M144.3,121.9C144.3,122,144.3,122,144.3,121.9c-14.5,19-22,36.7-23.7,40.9l0,0c-1.2,0.5-2.4,0.9-3.7,1.2
			C128.9,136.6,142.9,123.3,144.3,121.9z"/>
		<path class="st1" d="M144.4,121.8c0,0-0.1,0.1-0.1,0.2c0,0,0,0,0,0C144.4,121.9,144.4,121.8,144.4,121.8z"/>
		<path class="st1" d="M144.7,126.6c-11.3,19.2-14.9,31-14.9,31c-1.2,0.9-2.4,1.7-3.6,2.4C134.2,138.4,144.5,126.9,144.7,126.6z"/>
		<path class="st1" d="M144.1,134.3c-2.6,5-5.2,13.2-5.4,13.7c-1.1,1.7-2.4,3.4-3.8,5C139.4,139.2,144.1,134.3,144.1,134.3z"/>
		<path class="st2" d="M118.8,123.3c0,0,3.6,6.5-2.3,12.2l4.6,4.6c-0.3,0.4-0.6,0.7-0.8,1.1l-3.1-3.1c0,0-4.4,5.2-12,2.1
			c0,0,4-5,10.8-3.3l-7.4-7.4l1-1l6.5,6.5C116,135,113.1,128.7,118.8,123.3z"/>
		<path class="st2" d="M103.9,143.8c0,0,2.3,4.1-1.4,7.7l2.3,2.3c-0.2,0.2-0.4,0.4-0.7,0.5l-1.2-1.2c0,0-2.8,3.3-7.5,1.3
			c0,0,2.5-3.2,6.8-2.1l-4.6-4.6l0.6-0.6l4.1,4.1C102.1,151.1,100.3,147.2,103.9,143.8z"/>
		<path class="st2" d="M133.1,114.7c0,0,2.3,4.1-1.4,7.7l2.4,2.4c-0.2,0.2-0.4,0.4-0.6,0.6l-1.5-1.5c0,0-2.8,3.3-7.5,1.3
			c0,0,2.5-3.2,6.8-2.1l-4.6-4.6l0.6-0.6l4.1,4.1C131.3,122,129.5,118.1,133.1,114.7z"/>
		<g>
			
				<ellipse transform="matrix(0.7071 -0.7071 0.7071 0.7071 -72.7542 105.4062)" class="st4" cx="90.9" cy="140.5" rx="11.4" ry="11.4"/>
			
				<ellipse transform="matrix(0.7071 -0.7071 0.7071 0.7071 -72.7542 105.4062)" class="st5" cx="90.9" cy="140.5" rx="9.6" ry="9.6"/>
			
				<ellipse transform="matrix(0.7071 -0.7071 0.7071 0.7071 -72.7542 105.4062)" class="st6" cx="90.9" cy="140.5" rx="8.3" ry="8.3"/>
			<g id="Group_1_" transform="translate(7.000000, 7.000000)">
				<polygon id="Fill-1_1_" class="st2" points="81.3,129 81.9,129.6 83.5,128 85.4,129.8 86,129.2 83.5,126.7 				"/>
				<polygon id="Fill-2_1_" class="st2" points="81,137.4 82.9,139.3 83.2,139.6 83.5,139.9 85.8,137.7 85.2,137 83.6,138.6 
					81.7,136.8 				"/>
				<g id="Group-5_2_">
					<g id="Clip-4_2_">
					</g>
					<defs>
						<filter id="Adobe_OpacityMaskFilter" filterUnits="userSpaceOnUse" x="76.9" y="129.8" width="6.3" height="7">
							<feColorMatrix  type="matrix" values="1 0 0 0 0  0 1 0 0 0  0 0 1 0 0  0 0 0 1 0"/>
						</filter>
					</defs>
					<mask maskUnits="userSpaceOnUse" x="76.9" y="129.8" width="6.3" height="7" id="mask-6_3_">
						<g class="st7">
							<polygon id="path-5_3_" class="st0" points="76.9,133.3 80.8,129.5 84.3,133 80.4,136.8 							"/>
						</g>
					</mask>
					<path id="Fill-3_2_" class="st8" d="M78.3,133.1l2-2c0.1-0.1,0.4-0.1,0.5,0l0.3,0.3c0.1,0.1,0.1,0.3,0,0.5l-2,2L78.3,133.1z
						 M81.2,136l1.3-1.3l-0.6-0.6l-1.3,1.3l-0.9-0.9l2-2c0.1-0.1,0.3-0.1,0.4,0l0.3,0.3l0.8-0.8l-0.1-0.1c-0.3-0.3-0.8-0.3-1.2,0
						l0,0c0,0,0.6-0.7,0.1-1.2c0,0,0-0.1-0.1-0.1c-0.2-0.2-0.9-1.1-1.5-0.6l-2.5,2.5l-0.8,0.8l3.5,3.5L81.2,136L81.2,136z"/>
				</g>
				<path id="Fill-6_1_" class="st2" d="M88.2,133.1l0.2,0.2c0.1,0.1,0.1,0.3,0,0.4l-0.8,0.8l0,0l-1.2,1.2l-0.8-0.9l2-2
					c0.1-0.1,0.3-0.1,0.4,0L88.2,133.1L88.2,133.1z M84.2,133.5l2-2c0.1-0.1,0.4-0.1,0.5,0l0.3,0.3c0.1,0.1,0.1,0.3,0,0.5l-2,2
					L84.2,133.5z M86.2,130.3l-2.5,2.5l-0.8,0.8l3.5,3.5l0.8-0.8l1.3-1.3l0,0c0.2-0.2,1-1,1.2-1.3c0.1-0.1,0.3-0.7-0.1-1.1l-0.4-0.4
					l0,0l-0.1-0.1c-0.3-0.3-0.9-0.3-1.2,0l0,0c0,0,0.6-0.7,0.1-1.2c0,0,0-0.1-0.1-0.1C87.5,130.7,86.8,129.8,86.2,130.3L86.2,130.3z
					"/>
			</g>
		</g>
		<g>
			
				<ellipse transform="matrix(0.7071 -0.7071 0.7071 0.7071 -43.6038 117.4807)" class="st4" cx="120" cy="111.4" rx="11.4" ry="11.4"/>
			
				<ellipse transform="matrix(0.7071 -0.7071 0.7071 0.7071 -43.6038 117.4807)" class="st5" cx="120" cy="111.4" rx="9.6" ry="9.6"/>
			
				<ellipse transform="matrix(0.7071 -0.7071 0.7071 0.7071 -43.6038 117.4807)" class="st6" cx="120" cy="111.4" rx="8.3" ry="8.3"/>
			<g id="Group_2_" transform="translate(7.000000, 7.000000)">
				<polygon id="Fill-1_2_" class="st2" points="110.4,99.8 111,100.4 112.6,98.8 114.5,100.7 115.2,100 112.7,97.6 				"/>
				<polygon id="Fill-2_2_" class="st2" points="110.2,108.3 112.1,110.2 112.4,110.5 112.7,110.8 114.9,108.5 114.3,107.9 
					112.7,109.5 110.8,107.6 				"/>
				<g id="Group-5_3_">
					<g id="Clip-4_3_">
					</g>
					<defs>
						<filter id="Adobe_OpacityMaskFilter_1_" filterUnits="userSpaceOnUse" x="106.1" y="100.7" width="6.3" height="7">
							<feColorMatrix  type="matrix" values="1 0 0 0 0  0 1 0 0 0  0 0 1 0 0  0 0 0 1 0"/>
						</filter>
					</defs>
					<mask maskUnits="userSpaceOnUse" x="106.1" y="100.7" width="6.3" height="7" id="mask-6_2_">
						<g class="st9">
							<polygon id="path-5_2_" class="st0" points="106.1,104.2 109.9,100.3 113.4,103.8 109.6,107.7 							"/>
						</g>
					</mask>
					<path id="Fill-3_3_" class="st10" d="M107.5,104l2-2c0.1-0.1,0.4-0.1,0.5,0l0.3,0.3c0.1,0.1,0.1,0.3,0,0.5l-2,2L107.5,104z
						 M110.4,106.9l1.3-1.3L111,105l-1.3,1.3l-0.9-0.9l2-2c0.1-0.1,0.3-0.1,0.4,0l0.3,0.3l0.8-0.8l-0.1-0.1c-0.3-0.3-0.8-0.3-1.2,0
						l0,0c0,0,0.6-0.7,0.1-1.2c0,0,0-0.1-0.1-0.1c-0.2-0.2-0.9-1.1-1.5-0.6l-2.5,2.5l-0.8,0.8l3.5,3.5L110.4,106.9L110.4,106.9z"/>
				</g>
				<path id="Fill-6_2_" class="st2" d="M117.3,103.9l0.2,0.2c0.1,0.1,0.1,0.3,0,0.4l-0.8,0.8l0,0l-1.2,1.2l-0.8-0.9l2-2
					c0.1-0.1,0.3-0.1,0.4,0L117.3,103.9L117.3,103.9z M113.4,104.3l2-2c0.1-0.1,0.4-0.1,0.5,0l0.3,0.3c0.1,0.1,0.1,0.3,0,0.5l-2,2
					L113.4,104.3z M115.3,101.2l-2.5,2.5l-0.8,0.8l3.5,3.5l0.8-0.8l1.3-1.3l0,0c0.2-0.2,1-1,1.2-1.3c0.1-0.1,0.3-0.7-0.1-1.1
					l-0.4-0.4l0,0l-0.1-0.1c-0.3-0.3-0.9-0.3-1.2,0l0,0c0,0,0.6-0.7,0.1-1.2c0,0,0-0.1-0.1-0.1C116.7,101.6,116,100.6,115.3,101.2
					L115.3,101.2z"/>
			</g>
		</g>
		<g>
			
				<ellipse transform="matrix(0.7071 -0.7071 0.7071 0.7071 -54.0234 102.1493)" class="st4" cx="96.3" cy="116.3" rx="18.1" ry="18.1"/>
			
				<ellipse transform="matrix(0.7071 -0.7071 0.7071 0.7071 -54.0234 102.1493)" class="st5" cx="96.3" cy="116.3" rx="15.3" ry="15.3"/>
			
				<ellipse transform="matrix(0.7071 -0.7071 0.7071 0.7071 -54.0234 102.1493)" class="st6" cx="96.3" cy="116.3" rx="13.1" ry="13.1"/>
			<g id="Group" transform="translate(7.000000, 7.000000)">
				<polygon id="Fill-1" class="st2" points="85.2,102.1 86.2,103.1 88.7,100.5 91.7,103.4 92.7,102.4 88.8,98.5 				"/>
				<polygon id="Fill-2" class="st2" points="84.8,115.5 87.8,118.5 88.3,118.9 88.8,119.4 92.4,115.8 91.4,114.9 88.8,117.4 
					85.9,114.5 				"/>
				<g id="Group-5_1_">
					<g id="Clip-4_1_">
					</g>
					<defs>
						<filter id="Adobe_OpacityMaskFilter_2_" filterUnits="userSpaceOnUse" x="78.3" y="103.4" width="9.9" height="11.1">
							<feColorMatrix  type="matrix" values="1 0 0 0 0  0 1 0 0 0  0 0 1 0 0  0 0 0 1 0"/>
						</filter>
					</defs>
					<mask maskUnits="userSpaceOnUse" x="78.3" y="103.4" width="9.9" height="11.1" id="mask-6_1_">
						<g class="st11">
							<polygon id="path-5_1_" class="st0" points="78.3,109 84.4,102.9 89.9,108.4 83.8,114.5 							"/>
						</g>
					</mask>
					<path id="Fill-3_1_" class="st12" d="M80.5,108.7l3.1-3.1c0.2-0.2,0.6-0.2,0.8,0l0.5,0.5c0.2,0.2,0.2,0.5,0,0.7l-3.2,3.2
						L80.5,108.7z M85.1,113.2l2-2l-1-1l-2,2l-1.4-1.4l3.1-3.1c0.2-0.2,0.4-0.2,0.6,0l0.4,0.4l1.3-1.3l-0.2-0.2
						c-0.5-0.5-1.3-0.5-1.9,0l-0.1,0.1c0,0,0.9-1.1,0.1-1.9c0,0-0.1-0.1-0.1-0.1c-0.3-0.3-1.4-1.8-2.4-0.9l-4,4l-1.3,1.3l5.6,5.6
						L85.1,113.2L85.1,113.2z"/>
				</g>
				<path id="Fill-6" class="st2" d="M96.2,108.6l0.4,0.4c0.2,0.2,0.2,0.4,0,0.6l-1.3,1.3l0,0l-1.9,1.9l-1.3-1.4l3.1-3.1
					c0.2-0.2,0.4-0.2,0.6,0L96.2,108.6L96.2,108.6z M89.9,109.2l3.1-3.1c0.2-0.2,0.6-0.2,0.8,0l0.5,0.5c0.2,0.2,0.2,0.5,0,0.7
					l-3.2,3.2L89.9,109.2z M93,104.2l-4,4l-1.3,1.3l5.5,5.5l1.3-1.3l2-2l0,0c0.4-0.4,1.7-1.6,1.9-2c0.1-0.2,0.5-1.1-0.1-1.8
					l-0.7-0.7l0,0l-0.2-0.2c-0.5-0.5-1.4-0.5-1.9,0l-0.1,0.1c0,0,0.9-1.1,0.1-1.9c0,0-0.1-0.1-0.1-0.1C95.1,104.8,94,103.4,93,104.2
					L93,104.2z"/>
			</g>
		</g>
	</g>
</g>
</svg>
